<svg xmlns="http://www.w3.org/2000/svg" xmlns:xlink="http://www.w3.org/1999/xlink" id="body_1" preserveAspectRatio="xMinYMin meet" viewBox="0 0 793 1123"><defs><clipPath id="1"><path d="M0 842L0 0L0 0L595 0L595 0L595 842L595 842L0 842z" /></clipPath><clipPath id="2"><path d="M0 0L595 0L595 0L595 748L595 748L0 748L0 748L0 0z" /></clipPath><clipPath id="3"><path d="M0 795L595 795L595 795L595 1543L595 1543L0 1543L0 1543L0 795z" /></clipPath><clipPath id="4"><path d="M0 47L595 47L595 47L595 795L595 795L0 795L0 795L0 47z" /></clipPath></defs><g transform="matrix(1.333333 0 0 1.333333 0 0)"><g><g clip-path="url(#1)"><g clip-path="url(#2)"><path transform="matrix(1 0 0 -1 0 842)" d="M0 842L595 842L595 842L595 795L595 795L0 795z" stroke="none" fill="#FFFFFF" fill-rule="winding" /></g><g clip-path="url(#3)"><path transform="matrix(1 0 0 -1 0 842)" d="M0 47L595 47L595 47L595 0L595 0L0 0z" stroke="none" fill="#FFFFFF" fill-rule="winding" /></g><g clip-path="url(#4)"><path transform="matrix(1 0 0 -1 0 842)" d="M0 795L595 795L595 795L595 58L595 58L0 58z" stroke="none" fill="#FFFFFF" fill-rule="winding" /><path transform="matrix(1 0 0 -1 0 842)" d="M49 682L546 682L546 682L546 681L546 681L49 681z" stroke="none" fill="#000000" fill-rule="winding" /><path transform="matrix(1 0 0 -1 0 842)" d="M49 571L546 571L546 571L546 570L546 570L49 570z" stroke="none" fill="#000000" fill-rule="winding" /><path transform="matrix(1 0 0 -1 0 842)" d="M49 401L546 401L546 401L546 400L546 400L49 400z" stroke="none" fill="#000000" fill-rule="winding" /><path transform="matrix(1 0 0 -1 0 842)" d="M49 289L546 289L546 289L546 288L546 288L49 288z" stroke="none" fill="#000000" fill-rule="winding" /><path transform="matrix(1 0 0 -1 0 842)" d="M49 124L546 124L546 124L546 123L546 123L49 123z" stroke="none" fill="#000000" fill-rule="winding" /><path transform="matrix(1 0 0 -1 0 842)" d="M53 534.5C 53 533.6716 52.32843 533 51.5 533C 50.67157 533 50 533.6716 50 534.5C 50 535.3284 50.67157 536 51.5 536C 52.32843 536 53 535.3284 53 534.5z" stroke="#000000" stroke-width="1" fill="#000000" fill-rule="evenodd" /><path transform="matrix(1 0 0 -1 0 842)" d="M53 514.5C 53 513.6716 52.32843 513 51.5 513C 50.67157 513 50 513.6716 50 514.5C 50 515.3284 50.67157 516 51.5 516C 52.32843 516 53 515.3284 53 514.5z" stroke="#000000" stroke-width="1" fill="#000000" fill-rule="evenodd" /><path transform="matrix(1 0 0 -1 0 842)" d="M53 460.5C 53 459.6716 52.32843 459 51.5 459C 50.67157 459 50 459.6716 50 460.5C 50 461.3284 50.67157 462 51.5 462C 52.32843 462 53 461.3284 53 460.5z" stroke="#000000" stroke-width="1" fill="#000000" fill-rule="evenodd" /><path transform="matrix(1 0 0 -1 0 842)" d="M53 440.5C 53 439.6716 52.32843 439 51.5 439C 50.67157 439 50 439.6716 50 440.5C 50 441.3284 50.67157 442 51.5 442C 52.32843 442 53 441.3284 53 440.5z" stroke="#000000" stroke-width="1" fill="#000000" fill-rule="evenodd" /><path transform="matrix(1 0 0 -1 0 842)" d="M53 364.5C 53 363.6716 52.32843 363 51.5 363C 50.67157 363 50 363.6716 50 364.5C 50 365.3284 50.67157 366 51.5 366C 52.32843 366 53 365.3284 53 364.5z" stroke="#000000" stroke-width="1" fill="#000000" fill-rule="evenodd" /><path transform="matrix(1 0 0 -1 0 842)" d="M53 344.5C 53 343.6716 52.32843 343 51.5 343C 50.67157 343 50 343.6716 50 344.5C 50 345.3284 50.67157 346 51.5 346C 52.32843 346 53 345.3284 53 344.5z" stroke="#000000" stroke-width="1" fill="#000000" fill-rule="evenodd" /><path transform="matrix(1 0 0 -1 0 842)" d="M53 324.5C 53 323.6716 52.32843 323 51.5 323C 50.67157 323 50 323.6716 50 324.5C 50 325.3284 50.67157 326 51.5 326C 52.32843 326 53 325.3284 53 324.5z" stroke="#000000" stroke-width="1" fill="#000000" fill-rule="evenodd" /><path transform="matrix(1 0 0 -1 0 842)" d="M53 253.5C 53 252.6716 52.32843 252 51.5 252C 50.67157 252 50 252.6716 50 253.5C 50 254.3284 50.67157 255 51.5 255C 52.32843 255 53 254.3284 53 253.5z" stroke="#000000" stroke-width="1" fill="#000000" fill-rule="evenodd" /><path transform="matrix(1 0 0 -1 0 842)" d="M53 233.5C 53 232.6716 52.32843 232 51.5 232C 50.67157 232 50 232.6716 50 233.5C 50 234.3284 50.67157 235 51.5 235C 52.32843 235 53 234.3284 53 233.5z" stroke="#000000" stroke-width="1" fill="#000000" fill-rule="evenodd" /><path transform="matrix(1 0 0 -1 0 842)" d="M53 194.5C 53 193.6716 52.32843 193 51.5 193C 50.67157 193 50 193.6716 50 194.5C 50 195.3284 50.67157 196 51.5 196C 52.32843 196 53 195.3284 53 194.5z" stroke="#000000" stroke-width="1" fill="#000000" fill-rule="evenodd" /><path transform="matrix(1 0 0 -1 0 842)" d="M53 159.5C 53 158.6716 52.32843 158 51.5 158C 50.67157 158 50 158.6716 50 159.5C 50 160.3284 50.67157 161 51.5 161C 52.32843 161 53 160.3284 53 159.5z" stroke="#000000" stroke-width="1" fill="#000000" fill-rule="evenodd" /><path transform="matrix(1 0 0 -1 0 842)" d="M53 107.5C 53 106.6716 52.32843 106 51.5 106C 50.67157 106 50 106.6716 50 107.5C 50 108.3284 50.67157 109 51.5 109C 52.32843 109 53 108.3284 53 107.5z" stroke="#000000" stroke-width="1" fill="#000000" fill-rule="evenodd" /><path transform="matrix(1 0 0 -1 0 842)" d="M53 87.5C 53 86.67157 52.32843 86 51.5 86C 50.67157 86 50 86.67157 50 87.5C 50 88.32843 50.67157 89 51.5 89C 52.32843 89 53 88.32843 53 87.5z" stroke="#000000" stroke-width="1" fill="#000000" fill-rule="evenodd" /><path transform="matrix(1 0 0 -1 0 842)" d="M53 68.5C 53 67.67157 52.32843 67 51.5 67C 50.67157 67 50 67.67157 50 68.5C 50 69.32843 50.67157 70 51.5 70C 52.32843 70 53 69.32843 53 68.5z" stroke="#000000" stroke-width="1" fill="#000000" fill-rule="evenodd" /><g transform="matrix(0.1939799 0 0 0.1922005 477 49)"><g transform="matrix(1 0 0 1 0 0)"><image x="0" y="0" xlink:href="img_01.png" width="299" height="359" /></g></g></g></g></g></g></svg>